<svg version="1.2" xmlns="http://www.w3.org/2000/svg" viewBox="0 0 800 600" width="800" height="600">
	<title>Inkd Inverted Color-svg</title>
	<style>
		.s0 { fill: none } 
		.s1 { fill: #ffffff } 
	</style>
	<g id="Layer">
	</g>
	<g id="Layer">
		<g id="Layer">
			<g id="Layer">
				<g id="Layer">
					<g id="Layer">
						<g id="Layer">
							<g id="Layer">
								<path id="Layer" class="s0" d="m200.4 222.7h118.3v120.6h-118.3z"/>
								<g id="Layer">
									<g id="Layer">
										<path id="Layer" fill-rule="evenodd" class="s1" d="m345.8 233.5c12.5 5.3 23.9 13.1 33.4 22.8 9.6 9.8 17.2 21.4 22.4 34.2 5.2 12.7 7.9 26.4 7.9 40.2 0 42.6-25.1 80.9-63.7 97.2-38.5 16.3-82.9 7.3-112.4-22.8-29.5-30.1-38.3-75.3-22.4-114.7 16-39.3 53.6-64.9 95.3-64.9 13.6 0 27 2.7 39.5 8zm-4.9 182.2c10.9-4.6 20.8-11.4 29.2-19.9 8.4-8.6 15.1-18.7 19.6-29.9 4.5-11.1 6.9-23.1 6.9-35.2 0-37.2-22-70.8-55.7-85.1-33.8-14.2-72.6-6.3-98.4 20-25.8 26.3-33.5 65.9-19.6 100.3 14 34.4 46.9 56.9 83.4 56.9 11.9 0 23.6-2.4 34.6-7.1zm-25.3-116v82.3c0 1.7-0.7 3.3-1.9 4.6-1.2 1.2-2.8 1.8-4.5 1.8-1.7 0-3.3-0.6-4.5-1.8-1.2-1.3-1.9-2.9-2-4.6v-75.8h-0.3c-1.7 0-3.3-0.6-4.5-1.9-1.2-1.2-1.9-2.9-1.9-4.6 0-1.8 0.7-3.4 1.9-4.7 1.2-1.2 2.8-1.9 4.5-1.9h6.8q1.3 0 2.5 0.5 1.1 0.5 2.1 1.4 0.9 0.9 1.3 2.2 0.5 1.2 0.5 2.5zm1.1-20.3v0.9c-0.1 1.7-0.7 3.3-2 4.5-1.2 1.2-2.8 1.9-4.5 1.9-1.7 0-3.3-0.7-4.5-1.9-1.2-1.2-1.9-2.8-1.9-4.5v-0.9c0-1.7 0.7-3.3 1.9-4.5 1.2-1.2 2.8-1.9 4.5-1.9 1.7 0 3.3 0.7 4.5 1.9 1.3 1.2 1.9 2.8 2 4.5z"/>
									</g>
								</g>
							</g>
						</g>
					</g>
				</g>
				<g id="Layer">
					<g id="Layer">
						<path id="Layer" class="s1" d="m373.2 258.9q14 0 22.6 9 8.6 9 8.6 25.1v46.8h-19.8v-44q0-9.5-4.6-14.7-4.7-5.1-12.7-5.1-8.2 0-12.9 5.1-4.8 5.2-4.8 14.7v44h-19.7v-79.8h19.7v10q4-5.2 10.1-8.2 6.2-2.9 13.5-2.9z"/>
					</g>
				</g>
				<g id="Layer">
					<g id="Layer">
						<path id="Layer" class="s1" d="m484.2 339.8h-25.7l-26.5-34v34h-19.8v-106.5h19.8v60.6l26.2-33.9h25.7l-34.4 40.1z"/>
					</g>
				</g>
				<g id="Layer">
					<g id="Layer">
						<path id="Layer" class="s1" d="m492.2 224.9h17l-1.7 30.5h-13.5z"/>
					</g>
				</g>
				<g id="Layer">
					<g id="Layer">
						<path id="Layer" fill-rule="evenodd" class="s1" d="m518.1 299.6q0-12.1 4.7-21.4 4.8-9.4 12.9-14.4 8.2-5.1 18.3-5.1 7.6 0 14.5 3.4 6.9 3.4 11 9v-37.8h20.1v106.5h-20.1v-11.8q-3.7 5.9-10.3 9.5-6.6 3.6-15.4 3.6-9.9 0-18.1-5.2-8.1-5.2-12.9-14.6-4.7-9.4-4.7-21.7zm61.5 0.3q0-7.3-2.8-12.6-2.8-5.2-7.6-8-4.8-2.8-10.3-2.8-5.5 0-10.2 2.7-4.6 2.7-7.5 8-2.9 5.2-2.9 12.4 0 7.2 2.9 12.6 2.9 5.4 7.6 8.3 4.7 2.9 10.1 2.9 5.5 0 10.3-2.8 4.8-2.8 7.6-8.1 2.8-5.2 2.8-12.6z"/>
					</g>
				</g>
			</g>
			<g id="Layer">
				<path id="Layer" class="s1" d="m212.2 366.3h100.2v2.4h-100.2z"/>
				<path id="Layer" class="s1" d="m487.6 366.3h100.2v2.4h-100.2z"/>
				<g id="Layer">
					<g id="Layer">
						<path id="Layer" fill-rule="evenodd" class="s1" d="m321.8 358.1v18.9h-2.4v-18.9zm7.9 0l3.6 10.1 1.3 3.9h0.1l1.3-3.9 3.6-10.1h2.8v18.9h-2.3v-10.4q0-1.3 0.1-2.8 0.1-1.6 0.2-2.8h-0.1l-1.5 4.2-3.5 9.9h-1.4l-3.5-9.9-1.5-4.2h-0.1q0.1 1.2 0.2 2.8 0.1 1.5 0.1 2.8v10.4h-2.2v-18.9zm23.5 0q1.5 0 2.8 0.3 1.2 0.2 2.1 0.9 0.9 0.6 1.4 1.7 0.5 1.1 0.5 2.6 0 1.5-0.5 2.6-0.5 1.1-1.4 1.8-0.9 0.8-2.2 1.1-1.2 0.4-2.7 0.4h-3.4v7.5h-2.3v-18.9zm3.3 8.5q1.2-1 1.2-3 0-2-1.2-2.8-1.2-0.8-3.6-0.8h-3v7.5h3q2.4 0 3.6-0.9zm13 2.4h-3.4v8h-2.3v-18.9h5.8q1.4 0 2.6 0.2 1.2 0.3 2 0.9 0.9 0.7 1.4 1.7 0.4 1 0.5 2.5 0 2.2-1.2 3.5-1.1 1.3-3 1.8l4.7 8.3h-2.7zm-0.2-2c1.4 0 2.5-0.3 3.3-0.9q1.2-0.9 1.2-2.8 0-1.8-1.2-2.6c-0.8-0.5-1.9-0.7-3.3-0.7h-3.1v7zm21.6-9v2.1h-8.3v5.9h7v2h-7v6.9h8.6v2h-11v-18.9zm6.6 16.5q1.4 0.7 2.8 0.7 1.8 0 2.8-0.9 1-0.8 1.1-2.2-0.1-0.7-0.3-1.2-0.2-0.5-0.6-0.9-0.4-0.4-1-0.7-0.6-0.2-1.2-0.6l-2.7-1.1q-0.6-0.3-1.3-0.7-0.7-0.4-1.2-1-0.5-0.6-0.9-1.4-0.3-0.8-0.3-1.8 0-1.1 0.4-2 0.5-0.9 1.2-1.6 0.8-0.7 1.9-1 1-0.4 2.3-0.4 1.7 0 3.1 0.6 1.4 0.7 2.4 1.7l-1.3 1.6q-0.9-0.9-1.9-1.3-1-0.5-2.3-0.5-1.6 0-2.5 0.7-1 0.8-1 2.1 0 0.6 0.3 1.1c0.2 0.3 0.4 0.6 0.7 0.9q0.5 0.3 1 0.6 0.6 0.3 1.1 0.5l2.6 1.1q0.8 0.4 1.5 0.8c0.5 0.3 0.9 0.7 1.3 1.1q0.5 0.6 0.8 1.4 0.3 0.7 0.3 1.8 0 1.1-0.5 2.1-0.4 1-1.2 1.7-0.8 0.7-2 1.2-1.2 0.4-2.6 0.4-2 0-3.6-0.8c-1.2-0.5-2.1-1.2-2.9-2l1.4-1.7q1 1.1 2.3 1.7zm14.7 0q1.3 0.7 2.8 0.7 1.8 0 2.8-0.9 1-0.8 1-2.2 0-0.7-0.2-1.2-0.2-0.5-0.7-0.9-0.4-0.4-0.9-0.7-0.6-0.2-1.2-0.6l-2.7-1.1q-0.6-0.3-1.3-0.7-0.7-0.4-1.2-1-0.6-0.6-0.9-1.4-0.4-0.8-0.3-1.8 0-1.1 0.4-2 0.4-0.9 1.2-1.6 0.8-0.7 1.8-1 1.1-0.4 2.4-0.4 1.6 0 3.1 0.6 1.4 0.7 2.4 1.7l-1.3 1.6q-0.9-0.9-1.9-1.3-1-0.5-2.3-0.5-1.6 0-2.5 0.7-1 0.8-1 2.1 0 0.6 0.3 1.1c0.2 0.3 0.4 0.6 0.7 0.9q0.5 0.3 1 0.6 0.5 0.3 1.1 0.5l2.6 1.1q0.8 0.4 1.5 0.8c0.5 0.3 0.9 0.7 1.2 1.1q0.5 0.6 0.8 1.4 0.3 0.7 0.3 1.8 0 1.1-0.4 2.1-0.4 1-1.3 1.7-0.8 0.7-1.9 1.2-1.2 0.4-2.7 0.4-1.9 0-3.6-0.8c-1.1-0.5-2-1.2-2.9-2l1.5-1.7q0.9 1.1 2.3 1.7zm15-16.5v18.9h-2.3v-18.9zm8.7 18.6q-1.4-0.7-2.5-2-1-1.3-1.6-3.1-0.6-1.8-0.6-4.1 0-2.3 0.6-4.1 0.6-1.8 1.6-3 1.1-1.3 2.5-1.9c1-0.5 2-0.7 3.2-0.7q1.8 0 3.2 0.7 1.5 0.6 2.5 1.9 1.1 1.2 1.7 3 0.6 1.8 0.5 4.1 0.1 2.3-0.5 4.1-0.6 1.8-1.7 3.1-1 1.3-2.5 2-1.4 0.7-3.2 0.7-1.7 0-3.2-0.7zm5.5-2q1-0.5 1.7-1.5c0.5-0.7 0.8-1.5 1.1-2.5q0.4-1.4 0.4-3.2 0-1.8-0.4-3.2c-0.3-0.9-0.6-1.7-1.1-2.4q-0.7-0.9-1.7-1.5-1-0.5-2.3-0.5c-0.8 0-1.6 0.2-2.2 0.5q-1 0.6-1.8 1.5-0.7 1-1.1 2.4-0.4 1.4-0.4 3.2 0 1.8 0.4 3.2 0.4 1.4 1.1 2.5 0.8 1 1.8 1.5c0.6 0.4 1.4 0.6 2.2 0.6q1.3 0 2.3-0.6zm12-16.6l6.8 11.9 2 3.9h0.1q-0.1-1.4-0.2-3-0.1-1.5-0.1-3v-9.8h2.2v18.9h-2.4l-6.7-11.9-2.1-3.9q0.1 1.5 0.2 3c0 0.9 0.1 2 0.1 2.9v9.9h-2.3v-18.9zm18.3 16.5q1.3 0.7 2.7 0.7 1.9 0 2.9-0.9 1-0.8 1-2.2 0-0.7-0.2-1.2-0.3-0.5-0.7-0.9-0.4-0.4-1-0.7-0.5-0.2-1.2-0.6l-2.6-1.1c-0.5-0.2-0.9-0.5-1.4-0.7q-0.6-0.4-1.2-1-0.5-0.6-0.8-1.4-0.4-0.8-0.4-1.8 0-1.1 0.5-2 0.4-0.9 1.2-1.6 0.7-0.7 1.8-1 1.1-0.4 2.3-0.4 1.7 0 3.1 0.6 1.4 0.7 2.4 1.7l-1.3 1.6q-0.8-0.9-1.8-1.3-1.1-0.5-2.4-0.5-1.5 0-2.5 0.7-0.9 0.8-0.9 2.1 0 0.6 0.2 1.1 0.3 0.5 0.8 0.9 0.4 0.3 1 0.6 0.5 0.3 1.1 0.5l2.6 1.1q0.8 0.4 1.5 0.8 0.7 0.5 1.2 1.1 0.5 0.6 0.8 1.4 0.3 0.7 0.3 1.8 0 1.1-0.4 2.1c-0.3 0.6-0.7 1.2-1.3 1.7q-0.8 0.7-2 1.2c-0.7 0.2-1.6 0.4-2.6 0.4q-1.9 0-3.6-0.8-1.7-0.7-2.9-2l1.4-1.7q1 1.1 2.4 1.7z"/>
					</g>
				</g>
			</g>
		</g>
	</g>
</svg>